<?xml version="1.0" encoding="UTF-8"?>
<svg xmlns="http://www.w3.org/2000/svg" width="126" height="29" viewBox="0 0 126 29" fill="none">
  <g clip-path="url(#clip0_2027_491)">
    <path d="M42.4557 13.9885L37.1811 21.481C36.6633 22.1915 35.822 22.6436 34.8836 22.6436C33.9775 22.6436 33.1362 22.1915 32.6184 21.5133L28.0234 15.7647L34.2688 7.91698C35.2072 6.75434 36.631 6.01155 38.249 6.01155C41.0643 6.01155 43.3618 8.30448 43.3618 11.1142C43.3618 12.18 43.0382 13.1488 42.4557 13.9885ZM16.4063 21.5133C15.8885 22.1915 15.0795 22.6436 14.1411 22.6436C13.2027 22.6436 12.3613 22.1915 11.8436 21.481L6.56898 13.9885C5.98651 13.1811 5.66292 12.18 5.66292 11.0819C5.66292 8.27221 7.96047 5.97926 10.7757 5.97926C12.3937 5.97926 13.8176 6.72205 14.7559 7.8847L21.0013 15.7324L16.4063 21.5133ZM38.2166 0.295303C34.56 0.295303 31.3564 2.10384 29.3825 4.84893L24.4962 11.3725L19.6422 4.84893C17.6683 2.10384 14.4647 0.295303 10.8081 0.295303C4.82157 0.295303 0 5.13958 0 11.0819C0 13.3748 0.71191 15.5064 1.94157 17.2503L7.24854 24.8074C8.8018 26.9066 11.3259 28.2952 14.1411 28.2952C16.5357 28.2952 18.6714 27.3264 20.2247 25.7439C20.5483 25.421 20.8395 25.0657 21.1308 24.6782L24.5285 20.4475L27.9263 24.6782C28.1852 25.0657 28.5088 25.421 28.8323 25.7439C30.3856 27.3264 32.5537 28.2952 34.9159 28.2952C37.7313 28.2952 40.2552 26.9389 41.8085 24.8074L47.1155 17.2503C48.3452 15.5064 49.057 13.3748 49.057 11.0819C49.0247 5.13958 44.1707 0.295303 38.2166 0.295303Z" fill="white"></path>
    <path d="M69.4747 18.7032L66.6918 8.82079H62.7439L59.9933 18.7032L57.5987 8.82079H54.0715L58.0842 22.5786H61.7731L64.7178 12.2764L67.6625 22.5786H71.3515L75.429 8.82079H71.9016L69.4747 18.7032Z" fill="white"></path>
    <path d="M87.2078 18.6046C86.4636 19.3474 85.5256 19.7349 84.3923 19.7349C83.2598 19.7349 82.2894 19.3474 81.5776 18.5723C80.8334 17.7972 80.4775 16.8284 80.4775 15.6334C80.4775 14.4385 80.8334 13.4373 81.5776 12.6946C82.3218 11.9195 83.2598 11.5319 84.3923 11.5319C85.5256 11.5319 86.4636 11.9195 87.2078 12.6946C87.952 13.4697 88.3079 14.4708 88.3079 15.6657C88.3079 16.893 87.952 17.8618 87.2078 18.6046ZM88.6321 9.40048C87.6286 8.78684 86.4636 8.46388 85.169 8.46388C84.004 8.46388 83.066 8.68995 82.3218 9.14215C81.5776 9.59427 80.9948 10.1433 80.5416 10.7569L80.4775 8.78684H76.9827V28.2932H80.5416V20.6715C81.0272 21.382 81.6425 21.931 82.4191 22.3186C83.1957 22.7061 84.1013 22.8999 85.1373 22.8999C86.4312 22.8999 87.5961 22.5769 88.5997 21.9633C89.6026 21.3497 90.4116 20.4777 91.0261 19.412C91.609 18.3463 91.9 17.0867 91.9 15.6981C91.9 14.3093 91.609 13.0821 91.0261 11.9841C90.444 10.886 89.635 10.0141 88.6321 9.40048Z" fill="white"></path>
    <path d="M103.844 18.6369C103.1 19.4119 102.162 19.7995 101.028 19.7995C99.8959 19.7995 98.9579 19.4119 98.2137 18.6369C97.4695 17.8618 97.1136 16.8606 97.1136 15.6658C97.1136 14.4708 97.4695 13.4697 98.2137 12.7269C98.9579 11.9841 99.8959 11.5966 101.028 11.5966C102.162 11.5966 103.132 11.9841 103.844 12.7591C104.588 13.5342 104.944 14.5031 104.944 15.698C104.944 16.893 104.588 17.8941 103.844 18.6369ZM104.88 10.6923C104.394 9.98176 103.779 9.43274 103.002 9.04524C102.226 8.65766 101.32 8.46387 100.284 8.46387C98.9903 8.46387 97.8254 8.78683 96.8218 9.40047C95.819 10.014 95.0099 10.8537 94.3954 11.9518C93.8125 13.0176 93.5215 14.277 93.5215 15.6658C93.5215 17.0544 93.8125 18.2816 94.3954 19.3797C94.9775 20.4777 95.7865 21.3174 96.8218 21.9633C97.8254 22.5769 98.9903 22.8999 100.284 22.8999C101.449 22.8999 102.388 22.6738 103.132 22.2217C103.876 21.7695 104.459 21.2205 104.912 20.6069L104.976 22.5769H108.471V8.81917H104.944L104.88 10.6923Z" fill="white"></path>
    <path d="M125.521 8.8208H121.734L117.722 18.5094L113.871 8.8208H110.02L115.392 21.642H116.557L116.039 22.9661C115.425 24.2902 115.004 24.8715 114.162 25.0976C113.774 25.1945 113.224 25.2914 112.577 25.2914H110.829V28.2625H112.577C114.615 28.2625 115.845 28.1011 116.751 27.4552C117.657 26.8093 118.337 25.582 119.178 23.5151L119.955 21.6097L125.521 8.8208Z" fill="white"></path>
  </g>
  <defs>
    <clipPath id="clip0_2027_491">
      <rect width="126" height="28" fill="white" transform="translate(0 0.295303)"></rect>
    </clipPath>
  </defs>
</svg>
