<?xml version="1.0" encoding="UTF-8"?>
<svg xmlns="http://www.w3.org/2000/svg" width="102" height="24" viewBox="0 0 102 24" fill="none">
  <path d="M14.4244 0H0.820231C0.36723 0 0 0.358172 0 0.8V14.0686C0 14.7814 0.883506 15.1383 1.40022 14.6343L15.0044 1.36568C15.5211 0.861713 15.1552 0 14.4244 0Z" fill="#212323"></path>
  <path d="M24.6069 23.2V1.93137C24.6069 1.21865 23.7234 0.861715 23.2067 1.36569L1.40022 22.6343C0.883506 23.1383 1.24947 24 1.98021 24H23.7867C24.2397 24 24.6069 23.6418 24.6069 23.2Z" fill="#212323"></path>
  <path d="M101.486 12.0068C101.486 7.39931 98.5921 4.27994 93.8277 4.27994C89.1219 4.27994 86.1405 7.45655 86.1405 12.0068C86.1405 16.5571 89.1219 19.7337 93.8277 19.7337C98.5628 19.7337 101.486 16.5571 101.486 12.0068ZM93.8277 16.7574C91.3725 16.7574 89.9111 15.069 89.9111 12.0068C89.9111 8.94469 91.3725 7.25622 93.8277 7.25622C96.2537 7.25622 97.7444 8.94469 97.7444 12.0068C97.7444 15.069 96.2537 16.7574 93.8277 16.7574Z" fill="#212323"></path>
  <path d="M85.9366 4.65271H82.9553V0.679993H79.3017V4.65271H76.9634V7.40005H79.3017V15.7565C79.3017 18.418 80.7631 19.5341 84.0075 19.5341C84.3875 19.5341 85.0305 19.5055 85.9366 19.4196V16.6723H84.6798C83.423 16.6723 82.9553 16.3289 82.9553 15.3845V7.40005H85.9366V4.65271Z" fill="#212323"></path>
  <path d="M70.3771 4.27994C68.2433 4.27994 66.6357 5.10986 65.5543 6.74109V4.62335H62.0176V24H65.7004V17.4729C66.7819 18.9896 68.331 19.7337 70.3771 19.7337C74.9952 19.7337 77.1289 16.1564 77.1289 12.0068C77.1289 7.82858 75.0244 4.27994 70.3771 4.27994ZM65.6127 12.0068C65.6127 8.91607 67.0742 7.25622 69.5002 7.25622C71.9554 7.25622 73.3876 8.83021 73.3876 11.8924C73.3876 14.3535 72.3938 16.7574 69.5002 16.7574C66.6357 16.7574 65.6127 14.4966 65.6127 12.0068Z" fill="#212323"></path>
  <path d="M60.7983 12.2644C60.7983 7.77134 58.1677 4.27994 53.3449 4.27994C48.6391 4.27994 45.8915 7.5424 45.8915 12.0068C45.8915 16.4712 48.6975 19.7337 53.4034 19.7337C56.6686 19.7337 59.1381 18.1521 60.1552 15.6106C60.2579 15.3538 60.3459 15.0872 60.4183 14.8114H56.8816C56.2678 16.2137 55.1279 16.9291 53.4326 16.9291C51.2112 16.9291 49.779 15.6699 49.5159 13.1229H60.7983V12.2644ZM53.3157 7.08451C55.4494 7.08451 56.7939 8.45818 57.1154 10.6045H49.5452C49.8959 8.22923 51.2989 7.08451 53.3157 7.08451Z" fill="#212323"></path>
  <path d="M40.6195 16.5857C39.2457 16.5857 38.2227 16.5857 37.5212 16.6143C38.0181 16.0134 38.6612 15.2693 39.4211 14.3535L45.3838 6.99865V4.62335H33.0784V7.42793H37.6966C39.0704 7.42793 40.0934 7.42793 40.7949 7.39931C40.298 8.00029 39.6549 8.74436 38.895 9.66014L32.9323 17.015V19.3903H45.7345V16.5857H40.6195Z" fill="#212323"></path>
</svg>
