<svg width="102" height="24" viewBox="0 0 102 24" fill="none" xmlns="http://www.w3.org/2000/svg">
<path d="M14.4244 0H0.820231C0.36723 0 0 0.358172 0 0.8V14.0686C0 14.7814 0.883506 15.1383 1.40022 14.6343L15.0044 1.36568C15.5211 0.861713 15.1552 0 14.4244 0Z" fill="white"/>
<path d="M24.6069 23.2V1.93137C24.6069 1.21865 23.7234 0.861715 23.2067 1.36569L1.40022 22.6343C0.883506 23.1383 1.24947 24 1.98021 24H23.7867C24.2397 24 24.6069 23.6418 24.6069 23.2Z" fill="white"/>
<path d="M101.486 12.0072C101.486 7.39965 98.5921 4.28027 93.8278 4.28027C89.122 4.28027 86.1406 7.45688 86.1406 12.0072C86.1406 16.5574 89.122 19.734 93.8278 19.734C98.5629 19.734 101.486 16.5574 101.486 12.0072ZM93.8278 16.7578C91.3726 16.7578 89.9112 15.0693 89.9112 12.0072C89.9112 8.94502 91.3726 7.25656 93.8278 7.25656C96.2538 7.25656 97.7445 8.94502 97.7445 12.0072C97.7445 15.0693 96.2538 16.7578 93.8278 16.7578Z" fill="white"/>
<path d="M85.9367 4.65289H82.9553V0.680176H79.3017V4.65289H76.9634V7.40023H79.3017V15.7567C79.3017 18.4182 80.7631 19.5343 84.0076 19.5343C84.3875 19.5343 85.0306 19.5057 85.9367 19.4198V16.6725H84.6798C83.423 16.6725 82.9553 16.3291 82.9553 15.3847V7.40023H85.9367V4.65289Z" fill="white"/>
<path d="M70.3771 4.28027C68.2433 4.28027 66.6357 5.1102 65.5543 6.74143V4.62369H62.0176V24.0003H65.7004V17.4732C66.7819 18.99 68.331 19.734 70.3771 19.734C74.9952 19.734 77.1289 16.1568 77.1289 12.0072C77.1289 7.82892 75.0244 4.28027 70.3771 4.28027ZM65.6127 12.0072C65.6127 8.9164 67.0742 7.25656 69.5002 7.25656C71.9554 7.25656 73.3876 8.83055 73.3876 11.8927C73.3876 14.3538 72.3938 16.7578 69.5002 16.7578C66.6357 16.7578 65.6127 14.4969 65.6127 12.0072Z" fill="white"/>
<path d="M60.7983 12.2647C60.7983 7.77168 58.1677 4.28027 53.345 4.28027C48.6391 4.28027 45.8916 7.54274 45.8916 12.0072C45.8916 16.4716 48.6976 19.734 53.4034 19.734C56.6686 19.734 59.1382 18.1524 60.1552 15.611C60.258 15.3542 60.3459 15.0875 60.4184 14.8117H56.8817C56.2679 16.214 55.1279 16.9295 53.4327 16.9295C51.2113 16.9295 49.779 15.6703 49.516 13.1233H60.7983V12.2647ZM53.3157 7.08485C55.4495 7.08485 56.794 8.45851 57.1155 10.6049H49.5452C49.896 8.22957 51.2989 7.08485 53.3157 7.08485Z" fill="white"/>
<path d="M40.6193 16.5859C39.2456 16.5859 38.2226 16.5859 37.5211 16.6145C38.018 16.0135 38.661 15.2695 39.4209 14.3537L45.3837 6.99884V4.62354H33.0783V7.42811H37.6964C39.0702 7.42811 40.0932 7.42811 40.7947 7.39949C40.2978 8.00047 39.6548 8.74454 38.8948 9.66032L32.9321 17.0152V19.3905H45.7344V16.5859H40.6193Z" fill="white"/>
</svg>
