<svg width="292" height="480" viewBox="0 0 292 480" fill="none" xmlns="http://www.w3.org/2000/svg">
<g opacity="0.5" clip-path="url(#clip0_2001_3304)">
<g opacity="0.15">
<mask id="path-1-inside-1_2001_3304" fill="white">
<path fill-rule="evenodd" clip-rule="evenodd" d="M4.0565 249.002C4.0565 117.038 111.034 10.0599 242.998 10.0599C374.962 10.0599 481.94 117.038 481.94 249.002C481.94 360.172 406.019 453.61 303.197 480.296C395.156 454.126 462.499 369.502 462.499 269.15C462.499 147.921 364.224 49.6453 242.995 49.6453C121.766 49.6453 23.4901 147.921 23.4901 269.15C23.4901 369.475 90.7964 454.081 182.718 480.275C79.9372 453.56 4.0565 360.142 4.0565 249.002ZM242.998 9.06592C110.485 9.06592 3.0625 116.489 3.0625 249.002C3.0625 381.514 110.485 488.937 242.998 488.937C375.511 488.937 482.934 381.514 482.934 249.002C482.934 116.489 375.511 9.06592 242.998 9.06592ZM24.4841 269.15C24.4841 148.47 122.315 50.6393 242.995 50.6393C363.675 50.6393 461.505 148.47 461.505 269.15C461.505 370.887 391.976 456.385 297.843 480.719C381.113 456.902 442.064 380.218 442.064 289.299C442.064 179.354 352.936 90.2257 242.991 90.2257C133.046 90.2257 43.9176 179.354 43.9176 289.299C43.9176 380.192 104.832 456.857 188.065 480.698C93.9731 456.336 24.4841 370.858 24.4841 269.15ZM242.991 91.2197C133.595 91.2197 44.9116 179.903 44.9116 289.299C44.9116 381.542 107.965 459.059 193.322 481.099C118.825 459.582 64.345 390.879 64.345 309.452C64.345 210.791 144.326 130.81 242.987 130.81C341.648 130.81 421.629 210.791 421.629 309.452C421.629 390.902 367.118 459.621 292.588 481.118C377.982 459.102 441.07 381.568 441.07 289.299C441.07 179.903 352.387 91.2197 242.991 91.2197ZM65.339 309.452C65.339 211.34 144.875 131.804 242.987 131.804C341.099 131.804 420.635 211.34 420.635 309.452C420.635 392.394 363.793 462.061 286.938 481.621C352.939 462.58 401.21 401.723 401.21 329.591C401.21 242.214 330.377 171.381 243 171.381C155.622 171.381 84.7891 242.214 84.7891 329.591C84.7891 401.793 133.154 462.698 199.253 481.676C122.289 462.192 65.339 392.473 65.339 309.452ZM243 172.375C156.171 172.375 85.7831 242.763 85.7831 329.591C85.7831 403.053 136.167 464.746 204.264 482C147.026 465.266 105.217 412.385 105.217 349.74C105.217 273.646 166.903 211.96 242.996 211.96C319.09 211.96 380.775 273.646 380.775 349.74C380.775 412.403 338.943 465.295 281.681 482.014C349.805 464.779 400.216 403.072 400.216 329.591C400.216 242.763 329.828 172.375 243 172.375ZM106.211 349.74C106.211 274.195 167.452 212.954 242.996 212.954C318.541 212.954 379.781 274.195 379.781 349.74C379.781 413.835 335.697 467.634 276.194 482.468C324.831 468.149 360.335 423.167 360.335 369.893C360.335 305.09 307.801 252.557 242.998 252.557C178.194 252.557 125.661 305.09 125.661 369.893C125.661 423.174 161.173 468.16 209.82 482.474C150.306 467.647 106.211 413.843 106.211 349.74ZM242.998 253.551C178.743 253.551 126.655 305.639 126.655 369.893C126.655 424.503 164.279 470.325 215.02 482.85C175.139 470.846 146.088 433.837 146.088 390.043C146.088 336.524 189.474 293.138 242.994 293.138C296.513 293.138 339.9 336.524 339.9 390.043C339.9 433.85 310.832 470.868 270.932 482.861C321.695 470.351 359.341 424.518 359.341 369.893C359.341 305.639 307.252 253.551 242.998 253.551ZM147.082 390.043C147.082 337.073 190.023 294.132 242.994 294.132C295.964 294.132 338.906 337.073 338.906 390.043C338.906 435.27 307.602 473.186 265.479 483.305C296.739 473.701 319.464 444.6 319.464 410.191C319.464 367.955 285.226 333.716 242.99 333.716C200.754 333.716 166.516 367.955 166.516 410.191C166.516 444.59 189.227 473.684 220.474 483.296C178.369 473.165 147.082 435.258 147.082 390.043ZM242.99 334.71C201.303 334.71 167.51 368.504 167.51 410.191C167.51 446.024 192.48 476.025 225.969 483.744C203.337 476.54 186.943 455.35 186.943 430.331C186.943 399.38 212.035 374.288 242.986 374.288C273.938 374.288 299.03 399.38 299.03 430.331C299.03 455.357 282.626 476.552 259.985 483.75C293.487 476.041 318.47 446.033 318.47 410.191C318.47 368.504 284.677 334.71 242.99 334.71ZM187.937 430.331C187.937 399.929 212.584 375.282 242.986 375.282C273.389 375.282 298.036 399.929 298.036 430.331C298.036 460.734 273.389 485.38 242.986 485.38C212.584 485.38 187.937 460.734 187.937 430.331Z"/>
</mask>
<path d="M303.197 480.296L302.923 479.334L303.448 481.264L303.197 480.296ZM182.718 480.275L182.466 481.243L182.992 479.313L182.718 480.275ZM297.843 480.719L297.568 479.758L298.093 481.687L297.843 480.719ZM188.065 480.698L187.814 481.666L188.34 479.737L188.065 480.698ZM193.322 481.099L193.072 482.068L193.6 480.139L193.322 481.099ZM292.588 481.118L292.311 480.157L292.838 482.086L292.588 481.118ZM286.938 481.621L286.661 480.66L287.185 482.59L286.938 481.621ZM199.253 481.676L199.008 482.646L199.529 480.715L199.253 481.676ZM204.264 482L204.019 482.97L204.545 481.04L204.264 482ZM281.681 482.014L281.401 481.054L281.926 482.983L281.681 482.014ZM276.194 482.468L275.912 481.509L276.436 483.439L276.194 482.468ZM209.82 482.474L209.578 483.444L210.102 481.515L209.82 482.474ZM215.02 482.85L214.78 483.821L215.308 481.893L215.02 482.85ZM270.932 482.861L270.644 481.903L271.172 483.832L270.932 482.861ZM265.479 483.305L265.185 482.349L265.713 484.277L265.479 483.305ZM220.474 483.296L220.24 484.269L220.768 482.341L220.474 483.296ZM225.969 483.744L225.744 484.718L226.272 482.791L225.969 483.744ZM259.985 483.75L259.682 482.797L260.209 484.725L259.985 483.75ZM242.998 9.05992C110.482 9.05992 3.0565 116.485 3.0565 249.002H5.0565C5.0565 117.59 111.587 11.0599 242.998 11.0599V9.05992ZM482.94 249.002C482.94 116.485 375.514 9.05992 242.998 9.05992V11.0599C374.41 11.0599 480.94 117.59 480.94 249.002H482.94ZM303.448 481.264C406.7 454.466 482.94 360.639 482.94 249.002H480.94C480.94 359.705 405.338 452.754 302.946 479.328L303.448 481.264ZM461.499 269.15C461.499 369.044 394.464 453.284 302.923 479.334L303.471 481.258C395.849 454.969 463.499 369.961 463.499 269.15H461.499ZM242.995 50.6453C363.671 50.6453 461.499 148.473 461.499 269.15H463.499C463.499 147.369 364.776 48.6453 242.995 48.6453V50.6453ZM24.4901 269.15C24.4901 148.473 122.318 50.6453 242.995 50.6453V48.6453C121.213 48.6453 22.4901 147.369 22.4901 269.15H24.4901ZM182.992 479.313C91.4887 453.238 24.4901 369.017 24.4901 269.15H22.4901C22.4901 369.934 90.1041 454.923 182.444 481.236L182.992 479.313ZM3.0565 249.002C3.0565 360.609 79.2558 454.417 182.466 481.243L182.969 479.307C80.6187 452.704 5.0565 359.676 5.0565 249.002H3.0565ZM4.0625 249.002C4.0625 117.041 111.038 10.0659 242.998 10.0659V8.06592C109.933 8.06592 2.0625 115.937 2.0625 249.002H4.0625ZM242.998 487.937C111.038 487.937 4.0625 380.962 4.0625 249.002H2.0625C2.0625 382.067 109.933 489.937 242.998 489.937V487.937ZM481.934 249.002C481.934 380.962 374.959 487.937 242.998 487.937V489.937C376.063 489.937 483.934 382.067 483.934 249.002H481.934ZM242.998 10.0659C374.959 10.0659 481.934 117.041 481.934 249.002H483.934C483.934 115.937 376.063 8.06592 242.998 8.06592V10.0659ZM242.995 49.6393C121.762 49.6393 23.4841 147.918 23.4841 269.15H25.4841C25.4841 149.022 122.867 51.6393 242.995 51.6393V49.6393ZM462.505 269.15C462.505 147.918 364.227 49.6393 242.995 49.6393V51.6393C363.122 51.6393 460.505 149.022 460.505 269.15H462.505ZM298.093 481.687C392.657 457.242 462.505 371.354 462.505 269.15H460.505C460.505 370.42 391.295 455.529 297.593 479.751L298.093 481.687ZM441.064 289.299C441.064 379.76 380.421 456.06 297.568 479.758L298.118 481.681C381.806 457.744 443.064 380.677 443.064 289.299H441.064ZM242.991 91.2257C352.383 91.2257 441.064 179.906 441.064 289.299H443.064C443.064 178.802 353.488 89.2257 242.991 89.2257V91.2257ZM44.9176 289.299C44.9176 179.906 133.598 91.2257 242.991 91.2257V89.2257C132.493 89.2257 42.9176 178.802 42.9176 289.299H44.9176ZM188.34 479.737C105.525 456.015 44.9176 379.734 44.9176 289.299H42.9176C42.9176 380.65 104.139 457.699 187.789 481.66L188.34 479.737ZM23.4841 269.15C23.4841 371.325 93.292 457.193 187.814 481.666L188.315 479.73C94.6541 455.48 25.4841 370.391 25.4841 269.15H23.4841ZM45.9116 289.299C45.9116 180.455 134.147 92.2197 242.991 92.2197V90.2197C133.042 90.2197 43.9116 179.35 43.9116 289.299H45.9116ZM193.572 480.131C108.645 458.202 45.9116 381.075 45.9116 289.299H43.9116C43.9116 382.009 107.284 459.916 193.072 482.068L193.572 480.131ZM63.345 309.452C63.345 391.336 118.131 460.423 193.045 482.06L193.6 480.139C119.518 458.742 65.345 390.422 65.345 309.452H63.345ZM242.987 129.81C143.773 129.81 63.345 210.238 63.345 309.452H65.345C65.345 211.343 144.878 131.81 242.987 131.81V129.81ZM422.629 309.452C422.629 210.238 342.2 129.81 242.987 129.81V131.81C341.096 131.81 420.629 211.343 420.629 309.452H422.629ZM292.865 482.079C367.812 460.462 422.629 391.36 422.629 309.452H420.629C420.629 390.445 366.424 458.781 292.311 480.157L292.865 482.079ZM440.07 289.299C440.07 381.101 377.301 458.245 292.338 480.149L292.838 482.086C378.662 459.959 442.07 382.035 442.07 289.299H440.07ZM242.991 92.2197C351.834 92.2197 440.07 180.455 440.07 289.299H442.07C442.07 179.35 352.939 90.2197 242.991 90.2197V92.2197ZM242.987 130.804C144.322 130.804 64.339 210.787 64.339 309.452H66.339C66.339 211.892 145.427 132.804 242.987 132.804V130.804ZM421.635 309.452C421.635 210.787 341.651 130.804 242.987 130.804V132.804C340.547 132.804 419.635 211.892 419.635 309.452H421.635ZM287.185 482.59C364.472 462.92 421.635 392.863 421.635 309.452H419.635C419.635 391.926 363.113 461.202 286.691 480.652L287.185 482.59ZM400.21 329.591C400.21 401.265 352.245 461.739 286.661 480.66L287.215 482.582C353.633 463.42 402.21 402.18 402.21 329.591H400.21ZM243 172.381C329.825 172.381 400.21 242.766 400.21 329.591H402.21C402.21 241.662 330.929 170.381 243 170.381V172.381ZM85.7891 329.591C85.7891 242.766 156.175 172.381 243 172.381V170.381C155.07 170.381 83.7891 241.662 83.7891 329.591H85.7891ZM199.529 480.715C133.847 461.856 85.7891 401.335 85.7891 329.591H83.7891C83.7891 402.251 132.461 463.539 198.977 482.637L199.529 480.715ZM64.339 309.452C64.339 392.941 121.61 463.052 199.008 482.646L199.499 480.707C122.967 461.333 66.339 392.004 66.339 309.452H64.339ZM86.7831 329.591C86.7831 243.315 156.724 173.375 243 173.375V171.375C155.619 171.375 84.7831 242.211 84.7831 329.591H86.7831ZM204.51 481.031C136.846 463.886 86.7831 402.584 86.7831 329.591H84.7831C84.7831 403.521 135.489 465.606 204.019 482.97L204.51 481.031ZM104.217 349.74C104.217 412.842 146.331 466.105 203.984 482.96L204.545 481.04C147.722 464.428 106.217 411.929 106.217 349.74H104.217ZM242.996 210.96C166.35 210.96 104.217 273.094 104.217 349.74H106.217C106.217 274.198 167.455 212.96 242.996 212.96V210.96ZM381.775 349.74C381.775 273.094 319.642 210.96 242.996 210.96V212.96C318.537 212.96 379.775 274.198 379.775 349.74H381.775ZM281.961 482.974C339.638 466.134 381.775 412.859 381.775 349.74H379.775C379.775 411.946 338.248 464.456 281.401 481.054L281.961 482.974ZM399.216 329.591C399.216 402.603 349.127 463.919 281.436 481.045L281.926 482.983C350.484 465.639 401.216 403.541 401.216 329.591H399.216ZM243 173.375C329.276 173.375 399.216 243.315 399.216 329.591H401.216C401.216 242.211 330.38 171.375 243 171.375V173.375ZM242.996 211.954C166.899 211.954 105.211 273.643 105.211 349.74H107.211C107.211 274.747 168.004 213.954 242.996 213.954V211.954ZM380.781 349.74C380.781 273.643 319.093 211.954 242.996 211.954V213.954C317.988 213.954 378.781 274.747 378.781 349.74H380.781ZM276.436 483.439C336.373 468.496 380.781 414.305 380.781 349.74H378.781C378.781 413.365 335.02 466.772 275.952 481.498L276.436 483.439ZM359.335 369.893C359.335 422.712 324.135 467.312 275.912 481.509L276.477 483.428C325.528 468.986 361.335 423.623 361.335 369.893H359.335ZM242.998 253.557C307.249 253.557 359.335 305.642 359.335 369.893H361.335C361.335 304.538 308.353 251.557 242.998 251.557V253.557ZM126.661 369.893C126.661 305.642 178.747 253.557 242.998 253.557V251.557C177.642 251.557 124.661 304.538 124.661 369.893H126.661ZM210.102 481.515C161.87 467.323 126.661 422.719 126.661 369.893H124.661C124.661 423.63 160.477 468.998 209.538 483.433L210.102 481.515ZM105.211 349.74C105.211 414.313 149.63 468.509 209.578 483.444L210.062 481.504C150.983 466.785 107.211 413.373 107.211 349.74H105.211ZM127.655 369.893C127.655 306.191 179.296 254.551 242.998 254.551V252.551C178.191 252.551 125.655 305.087 125.655 369.893H127.655ZM215.26 481.88C164.955 469.461 127.655 424.032 127.655 369.893H125.655C125.655 424.974 163.604 471.188 214.78 483.821L215.26 481.88ZM145.088 390.043C145.088 434.291 174.44 471.68 214.732 483.808L215.308 481.893C175.838 470.012 147.088 433.384 147.088 390.043H145.088ZM242.994 292.138C188.922 292.138 145.088 335.972 145.088 390.043H147.088C147.088 337.076 190.027 294.138 242.994 294.138V292.138ZM340.9 390.043C340.9 335.972 297.066 292.138 242.994 292.138V294.138C295.961 294.138 338.9 337.076 338.9 390.043H340.9ZM271.22 483.819C311.531 471.702 340.9 434.304 340.9 390.043H338.9C338.9 433.397 310.133 470.034 270.644 481.903L271.22 483.819ZM358.341 369.893C358.341 424.047 321.019 469.487 270.693 481.89L271.172 483.832C322.37 471.214 360.341 424.989 360.341 369.893H358.341ZM242.998 254.551C306.7 254.551 358.341 306.191 358.341 369.893H360.341C360.341 305.087 307.804 252.551 242.998 252.551V254.551ZM242.994 293.132C189.471 293.132 146.082 336.521 146.082 390.043H148.082C148.082 337.625 190.576 295.132 242.994 295.132V293.132ZM339.906 390.043C339.906 336.521 296.517 293.132 242.994 293.132V295.132C295.412 295.132 337.906 337.625 337.906 390.043H339.906ZM265.713 484.277C308.274 474.053 339.906 435.743 339.906 390.043H337.906C337.906 434.797 306.929 472.319 265.245 482.333L265.713 484.277ZM318.464 410.191C318.464 444.148 296.038 472.87 265.185 482.349L265.773 484.261C297.441 474.532 320.464 445.051 320.464 410.191H318.464ZM242.99 334.716C284.673 334.716 318.464 368.507 318.464 410.191H320.464C320.464 367.403 285.778 332.716 242.99 332.716V334.716ZM167.516 410.191C167.516 368.507 201.307 334.716 242.99 334.716V332.716C200.202 332.716 165.516 367.403 165.516 410.191H167.516ZM220.768 482.341C189.929 472.854 167.516 444.138 167.516 410.191H165.516C165.516 445.041 188.526 474.514 220.18 484.252L220.768 482.341ZM146.082 390.043C146.082 435.731 177.696 474.031 220.24 484.269L220.708 482.324C179.042 472.298 148.082 434.785 148.082 390.043H146.082ZM168.51 410.191C168.51 369.056 201.856 335.71 242.99 335.71V333.71C200.751 333.71 166.51 367.952 166.51 410.191H168.51ZM226.193 482.77C193.148 475.153 168.51 445.548 168.51 410.191H166.51C166.51 446.5 191.811 476.898 225.744 484.718L226.193 482.77ZM226.272 482.791C204.044 475.715 187.943 454.902 187.943 430.331H185.943C185.943 455.798 202.631 477.364 225.665 484.697L226.272 482.791ZM187.943 430.331C187.943 399.932 212.587 375.288 242.986 375.288V373.288C211.482 373.288 185.943 398.827 185.943 430.331H187.943ZM242.986 375.288C273.386 375.288 298.03 399.932 298.03 430.331H300.03C300.03 398.827 274.49 373.288 242.986 373.288V375.288ZM298.03 430.331C298.03 454.909 281.92 475.727 259.682 482.797L260.288 484.703C283.332 477.376 300.03 455.805 300.03 430.331H298.03ZM317.47 410.191C317.47 445.557 292.819 475.169 259.761 482.775L260.209 484.725C294.156 476.914 319.47 446.51 319.47 410.191H317.47ZM242.99 335.71C284.124 335.71 317.47 369.056 317.47 410.191H319.47C319.47 367.952 285.229 333.71 242.99 333.71V335.71ZM242.986 374.282C212.031 374.282 186.937 399.376 186.937 430.331H188.937C188.937 400.481 213.136 376.282 242.986 376.282V374.282ZM299.036 430.331C299.036 399.376 273.942 374.282 242.986 374.282V376.282C272.837 376.282 297.036 400.481 297.036 430.331H299.036ZM242.986 486.38C273.942 486.38 299.036 461.286 299.036 430.331H297.036C297.036 460.182 272.837 484.38 242.986 484.38V486.38ZM186.937 430.331C186.937 461.286 212.031 486.38 242.986 486.38V484.38C213.136 484.38 188.937 460.182 188.937 430.331H186.937Z" fill="url(#paint0_linear_2001_3304)" mask="url(#path-1-inside-1_2001_3304)"/>
</g>
</g>
<defs>
<linearGradient id="paint0_linear_2001_3304" x1="243" y1="431.548" x2="107.779" y2="-33.0321" gradientUnits="userSpaceOnUse">
<stop stop-color="#212323"/>
<stop offset="1" stop-color="#212323" stop-opacity="0"/>
</linearGradient>
<clipPath id="clip0_2001_3304">
<rect width="480" height="480" fill="white"/>
</clipPath>
</defs>
</svg>
