<svg width="23" height="23" viewBox="0 0 23 23" fill="none" xmlns="http://www.w3.org/2000/svg">
<path d="M20.2085 16.9998L14.1192 11.4998M8.88111 11.4998L2.79186 16.9998M2.3335 6.9165L9.818 12.1557C10.4241 12.5799 10.7271 12.792 11.0567 12.8742C11.3479 12.9468 11.6524 12.9468 11.9436 12.8742C12.2732 12.792 12.5762 12.5799 13.1823 12.1557L20.6668 6.9165M6.7335 18.8332H16.2668C17.807 18.8332 18.577 18.8332 19.1653 18.5334C19.6827 18.2698 20.1034 17.8491 20.3671 17.3316C20.6668 16.7434 20.6668 15.9733 20.6668 14.4332V8.5665C20.6668 7.02636 20.6668 6.25629 20.3671 5.66803C20.1034 5.15058 19.6827 4.72989 19.1653 4.46624C18.577 4.1665 17.807 4.1665 16.2668 4.1665H6.7335C5.19335 4.1665 4.42328 4.1665 3.83502 4.46624C3.31758 4.72989 2.89688 5.15058 2.63323 5.66803C2.3335 6.25629 2.3335 7.02636 2.3335 8.5665V14.4332C2.3335 15.9733 2.3335 16.7434 2.63323 17.3316C2.89688 17.8491 3.31758 18.2698 3.83502 18.5334C4.42328 18.8332 5.19335 18.8332 6.7335 18.8332Z" stroke="#212323" stroke-width="1.75" stroke-linecap="round" stroke-linejoin="round"/>
</svg>
